# xmcd CD database file
#
# Track frame offsets:
#	150
#	21631
#	51594
#	86079
#	108439
#	127114
#	156452
#	179109
#	208978
#	243403
#
# Disc length: 3437 seconds
#
# Revision: 0
# Processed by: cddbd v1.5.2PL0 Copyright (c) Steve Scherf et al.
# Submitted via: CDex 1.70beta2
#
DISCID=a20d6b0a
DTITLE=Cholet Jean Christophe - slavonic tone
DYEAR=2008
DGENRE=Jazz
TTITLE0=fanfare
TTITLE1=echoes from slavonic
TTITLE2=tzigan zag
TTITLE3=lituania
TTITLE4=danse 7
TTITLE5=doudouk
TTITLE6=tche da ti kupim bela seitsa (bulgarisch trad)
TTITLE7=czardsa
TTITLE8=erghen diado (bulgarisch trad)
TTITLE9=tche da ti kupim bela seitsa (duo)
EXTD=YEAR: 2008
EXTT0=
EXTT1=
EXTT2=
EXTT3=
EXTT4=
EXTT5=
EXTT6=
EXTT7=
EXTT8=
EXTT9=
PLAYORDER=
